REM DIRINDEX 1\2\3,1\2\4,1\2\5,1\2\6
REM DIRNAME folder01,folder02,folder03,folder04,folder05,folder06
TITLE ""
FILE "191 191.mp3" MP3
  TRACK 01 AUDIO
    TITLE "0:"
    INDEX 01 00:00:00
  TRACK 02 AUDIO
    TITLE "3:cjc157_6889"
    INDEX 01 00:00:09
  TRACK 03 AUDIO
    TITLE "0:"
    INDEX 01 00:01:66
  TRACK 04 AUDIO
    TITLE "4:cjc157_6890"
    INDEX 01 00:02:38
  TRACK 05 AUDIO
    TITLE "0:"
    INDEX 01 00:04:05
  TRACK 06 AUDIO
    TITLE "5:cjc157_6891"
    INDEX 01 00:04:54
  TRACK 07 AUDIO
    TITLE "0:"
    INDEX 01 00:07:03
  TRACK 08 AUDIO
    TITLE "3:cjc157_6892"
    INDEX 01 00:07:52
  TRACK 09 AUDIO
    TITLE "0:"
    INDEX 01 00:09:14
  TRACK 10 AUDIO
    TITLE "4:cjc157_6893"
    INDEX 01 00:09:63
  TRACK 11 AUDIO
    TITLE "0:"
    INDEX 01 00:13:33
  TRACK 12 AUDIO
    TITLE "5:cjc157_6894"
    INDEX 01 00:14:07
  TRACK 13 AUDIO
    TITLE "0:"
    INDEX 01 00:19:24
  TRACK 14 AUDIO
    TITLE "3:cjc157_6895"
    INDEX 01 00:20:00
  TRACK 15 AUDIO
    TITLE "0:"
    INDEX 01 00:21:57
  TRACK 16 AUDIO
    TITLE "4:cjc157_6896"
    INDEX 01 00:22:27
  TRACK 17 AUDIO
    TITLE "0:"
    INDEX 01 00:26:38
  TRACK 18 AUDIO
    TITLE "5:cjc157_6897"
    INDEX 01 00:27:08
  TRACK 19 AUDIO
    TITLE "0:"
    INDEX 01 00:33:28
  TRACK 20 AUDIO
    TITLE "3:cjc157_6898"
    INDEX 01 00:33:73
  TRACK 21 AUDIO
    TITLE "0:"
    INDEX 01 00:34:73
  TRACK 22 AUDIO
    TITLE "4:cjc157_6899"
    INDEX 01 00:35:45
  TRACK 23 AUDIO
    TITLE "0:"
    INDEX 01 00:36:60
  TRACK 24 AUDIO
    TITLE "5:cjc157_6900"
    INDEX 01 00:37:32
  TRACK 25 AUDIO
    TITLE "0:"
    INDEX 01 00:40:52
  TRACK 26 AUDIO
    TITLE "3:cjc157_6901"
    INDEX 01 00:41:30
  TRACK 27 AUDIO
    TITLE "0:"
    INDEX 01 00:43:11
  TRACK 28 AUDIO
    TITLE "4:cjc157_6902"
    INDEX 01 00:43:60
  TRACK 29 AUDIO
    TITLE "0:"
    INDEX 01 00:44:73
  TRACK 30 AUDIO
    TITLE "5:cjc157_6903"
    INDEX 01 00:45:43
  TRACK 31 AUDIO
    TITLE "0:"
    INDEX 01 00:50:50
  TRACK 32 AUDIO
    TITLE "3:cjc157_6904"
    INDEX 01 00:51:20
  TRACK 33 AUDIO
    TITLE "0:"
    INDEX 01 00:52:08
  TRACK 34 AUDIO
    TITLE "4:cjc157_6905"
    INDEX 01 00:52:53
  TRACK 35 AUDIO
    TITLE "0:"
    INDEX 01 00:53:72
  TRACK 36 AUDIO
    TITLE "5:cjc157_6906"
    INDEX 01 00:54:40
  TRACK 37 AUDIO
    TITLE "0:"
    INDEX 01 00:58:48
  TRACK 38 AUDIO
    TITLE "3:cjc157_6907"
    INDEX 01 00:59:18
  TRACK 39 AUDIO
    TITLE "0:"
    INDEX 01 01:00:35
  TRACK 40 AUDIO
    TITLE "4:cjc157_6908"
    INDEX 01 01:01:07
  TRACK 41 AUDIO
    TITLE "0:"
    INDEX 01 01:02:48
  TRACK 42 AUDIO
    TITLE "5:cjc157_6909"
    INDEX 01 01:03:18
  TRACK 43 AUDIO
    TITLE "0:"
    INDEX 01 01:06:63
  TRACK 44 AUDIO
    TITLE "5:cjc157_6910"
    INDEX 01 01:07:37
  TRACK 45 AUDIO
    TITLE "0:"
    INDEX 01 01:10:33
  TRACK 46 AUDIO
    TITLE "3:cjc157_6911"
    INDEX 01 01:11:03
  TRACK 47 AUDIO
    TITLE "0:"
    INDEX 01 01:12:30
  TRACK 48 AUDIO
    TITLE "4:cjc157_6912"
    INDEX 01 01:12:71
  TRACK 49 AUDIO
    TITLE "0:"
    INDEX 01 01:14:39
  TRACK 50 AUDIO
    TITLE "5:cjc157_6913"
    INDEX 01 01:15:11
  TRACK 51 AUDIO
    TITLE "0:"
    INDEX 01 01:18:39
  TRACK 52 AUDIO
    TITLE "3:cjc157_6914"
    INDEX 01 01:19:11
  TRACK 53 AUDIO
    TITLE "0:"
    INDEX 01 01:20:38
  TRACK 54 AUDIO
    TITLE "4:cjc157_6915"
    INDEX 01 01:21:18
  TRACK 55 AUDIO
    TITLE "0:"
    INDEX 01 01:22:50
  TRACK 56 AUDIO
    TITLE "5:cjc157_6916"
    INDEX 01 01:23:22
  TRACK 57 AUDIO
    TITLE "0:"
    INDEX 01 01:26:58
  TRACK 58 AUDIO
    TITLE "3:cjc157_6917"
    INDEX 01 01:27:30
  TRACK 59 AUDIO
    TITLE "0:"
    INDEX 01 01:28:63
  TRACK 60 AUDIO
    TITLE "4:cjc157_6918"
    INDEX 01 01:29:31
  TRACK 61 AUDIO
    TITLE "0:"
    INDEX 01 01:30:56
  TRACK 62 AUDIO
    TITLE "5:cjc157_6919"
    INDEX 01 01:31:26
  TRACK 63 AUDIO
    TITLE "0:"
    INDEX 01 01:35:41
